# xmcd CD database file
# Copyright (C) 1995-1998 Ti Kan
#
# Track frame offsets:
#	180
#	29558
#	54775
#	87547
#	106504
#	135305
#	157315
#	183312
#	211915
#	268991
#
# Disc length: 4276 seconds
#
# Revision: 4
# Processed by: cddbd v1.4PL0 Copyright (c) Steve Scherf et al.
# Submitted via: CDex 1.30Release
#
DISCID=8610b20a
DTITLE=Stevie Ray Vaughan - City Of Lights
DYEAR=1988
DGENRE=Blues
TTITLE0=Pride And Joy
TTITLE1=You'll Be Mine
TTITLE2=I'm Leaving You
TTITLE3=Let Me Love You Babe
TTITLE4=Leave My Girl Alone
TTITLE5=Superstition
TTITLE6=Willie The Wimp
TTITLE7=Cold Shot
TTITLE8=Couldn't Stand The Weather
TTITLE9=Life Without You
EXTD=YEAR: 1988 ID3G:   0
EXTT0=
EXTT1=
EXTT2=
EXTT3=
EXTT4=
EXTT5=
EXTT6=
EXTT7=
EXTT8=
EXTT9=
PLAYORDER=
